<svg width="48" height="48" viewBox="0 0 48 48" fill="none" xmlns="http://www.w3.org/2000/svg">
<g clip-path="url(#clip0_90_42)">
<path d="M0.002 35.0411H1.922V27.9561L4.589 34.0131C4.918 34.7681 5.368 35.0351 6.251 35.0351C7.134 35.0351 7.566 34.7681 7.895 34.0131L10.562 28.1111V35.0411H12.482V27.7831C12.482 27.0861 12.205 26.7481 11.633 26.5741C10.266 26.1441 9.348 26.5151 8.933 27.4461L6.198 33.6061L3.549 27.4461C3.151 26.5161 2.217 26.1441 0.849 26.5741C0.277 26.7481 0 27.0851 0 27.7821V35.0401L0.002 35.0411Z" fill="#00796B"/>
<path d="M13.4409 29.281H15.3609V33.336C15.3459 33.536 15.4249 34.067 16.3509 34.081C16.8229 34.089 19.1719 34.081 19.2009 34.081V29.281H21.1209C21.1289 29.281 21.1209 35.249 21.1209 35.274C21.1309 36.746 19.2929 36.936 18.4479 36.961H13.4419V36.001C13.4519 36.001 18.2289 36.002 18.2429 36.001C19.3309 35.886 19.2019 35.287 19.2019 35.105V35.041H16.1899C14.5199 35.026 13.4549 34.29 13.4429 33.451C13.4409 33.373 13.4789 29.317 13.4409 29.281Z" fill="#00796B"/>
<path d="M22.0809 35.0409H26.8879C27.5179 35.0409 28.1299 34.9089 28.6159 34.6809C29.4259 34.3089 29.7599 33.8059 29.7599 33.1449V31.7769C29.7599 30.3009 27.9299 30.2409 26.8799 30.2409H24.9599C24.2049 30.2409 24.0899 29.7849 23.9999 29.2809V28.3209C24.0899 27.9369 24.2579 27.4209 24.9229 27.3609C25.6959 27.3609 29.7589 27.3609 29.7589 27.3609V26.4009H25.1929C24.4379 26.4009 22.0789 26.4909 22.0789 28.3209V29.5079C22.0789 30.3479 22.8169 31.0319 24.4189 31.1999C24.5989 31.2119 24.7789 31.2239 24.9579 31.2239C24.9579 31.2239 26.8239 31.1879 26.8779 31.1999C27.9579 31.1999 27.8379 32.0399 27.8379 32.1599V33.1199C27.8379 33.2519 27.8079 34.0799 26.8669 34.0799C26.7949 34.0799 22.0779 34.0799 22.0779 34.0799V35.0409H22.0809Z" fill="#F57F17"/>
<path d="M40.3201 33.0799C40.3201 34.2389 40.9751 34.8889 42.7121 35.0189C42.8741 35.0299 43.0371 35.0399 43.2001 35.0399H48.0001V34.0799H43.5651C42.5741 34.0799 42.2401 33.6639 42.2401 33.0689V26.3999H40.3201V33.0799Z" fill="#F57F17"/>
<path d="M30.7041 33.1209V28.3209C30.7041 27.3009 31.2041 26.5969 32.6201 26.4009H33.2921H36.7391H37.2641C38.6801 26.5969 39.3441 27.2999 39.3441 28.3209V33.1029C39.3441 33.9299 39.1291 34.3739 38.4281 34.6619L39.9161 35.9999H37.7561L36.6861 35.0399H35.4291L33.2931 35.0519C32.9841 35.0519 32.6581 35.0089 32.3001 34.9109C31.2261 34.6179 30.7041 34.0539 30.7041 33.1209ZM32.6241 33.1209C32.7221 33.5879 33.0971 34.0809 33.7641 34.0809H35.6281L34.5601 33.1209H36.7351L37.2541 33.6029C37.2541 33.6029 37.4401 33.4509 37.4401 33.1209C37.4401 32.7909 37.4241 28.3209 37.4241 28.3209C37.3261 27.8869 36.8861 27.3609 36.2361 27.3609H33.7651C33.0161 27.3609 32.6251 27.9089 32.6251 28.4189L32.6241 33.1209Z" fill="#F57F17"/>
<path d="M46.1989 25.389C45.1679 25.361 44.3809 25.457 43.7079 25.74C43.5169 25.821 43.2119 25.823 43.1799 26.063C43.2849 26.173 43.3009 26.338 43.3849 26.473C43.5449 26.733 43.8169 27.082 44.0589 27.264C44.3239 27.464 44.5969 27.678 44.8799 27.851C45.3839 28.158 45.9469 28.334 46.4329 28.642C46.7189 28.823 47.0029 29.053 47.2829 29.257C47.4209 29.359 47.5129 29.516 47.6929 29.58C47.6929 29.57 47.6929 29.561 47.6929 29.551C47.5989 29.431 47.5739 29.266 47.4879 29.14C47.3609 29.013 47.2339 28.886 47.1069 28.759C46.7349 28.265 46.2609 27.83 45.7589 27.47C45.3579 27.182 44.4609 26.793 44.2929 26.327C44.2829 26.317 44.2739 26.308 44.2629 26.297C44.5469 26.265 44.8799 26.162 45.1419 26.092C45.5829 25.974 45.9759 26.005 46.4309 25.887C46.6359 25.828 46.8409 25.77 47.0459 25.711C47.0459 25.672 47.0459 25.633 47.0459 25.594C46.8159 25.358 46.6509 25.046 46.4009 24.832C45.7439 24.273 45.0279 23.715 44.2909 23.249C43.8819 22.991 43.3759 22.823 42.9429 22.604C42.7969 22.53 42.5409 22.492 42.4449 22.37C42.2169 22.08 42.0939 21.711 41.9179 21.374C41.5499 20.666 41.1879 19.892 40.8629 19.147C40.6399 18.639 40.4949 18.137 40.2179 17.681C38.8869 15.493 37.4539 14.172 35.2359 12.874C34.7639 12.598 34.1949 12.489 33.5939 12.346C33.2709 12.327 32.9489 12.307 32.6259 12.287C32.4289 12.204 32.2249 11.964 32.0389 11.847C31.3039 11.382 29.4179 10.372 28.8739 11.7C28.5299 12.538 29.3879 13.356 29.6949 13.781C29.9099 14.079 30.1859 14.413 30.3399 14.749C30.4409 14.969 30.4589 15.19 30.5449 15.423C30.7579 15.997 31.0949 16.651 31.3709 17.182C31.5099 17.451 31.6639 17.733 31.8399 17.973C31.9479 18.12 32.1329 18.185 32.1629 18.413C31.9819 18.666 31.9719 19.059 31.8699 19.381C31.4119 20.826 31.5849 22.621 32.2509 23.689C32.4549 24.017 32.9369 24.721 33.5989 24.451C34.1779 24.215 34.0489 23.484 34.2139 22.839C34.2509 22.693 34.2279 22.586 34.3019 22.488C34.3019 22.498 34.3019 22.507 34.3019 22.518C34.4779 22.869 34.6529 23.222 34.8299 23.573C35.2209 24.202 35.9139 24.859 36.4999 25.303C36.8039 25.533 37.0439 25.931 37.4379 26.065C37.4379 26.055 37.4379 26.046 37.4379 26.035C37.4279 26.035 37.4189 26.035 37.4079 26.035C37.3319 25.916 37.2119 25.867 37.1149 25.771C36.8859 25.546 36.6299 25.267 36.4409 25.009C35.9069 24.284 35.4349 23.49 35.0049 22.664C34.7999 22.269 34.6209 21.835 34.4479 21.433C34.3809 21.278 34.3819 21.044 34.2429 20.964C34.0529 21.258 33.7749 21.496 33.6279 21.843C33.3939 22.398 33.3629 23.076 33.2769 23.777C33.2249 23.795 33.2479 23.783 33.2179 23.806C32.8099 23.707 32.6659 23.288 32.5139 22.927C32.1299 22.015 32.0589 20.547 32.3969 19.498C32.4839 19.226 32.8789 18.371 32.7199 18.12C32.6439 17.869 32.3919 17.724 32.2519 17.533C32.0769 17.297 31.9039 16.985 31.7829 16.712C31.4689 16.001 31.1709 15.174 30.8399 14.455C30.6819 14.111 30.4149 13.764 30.1949 13.459C29.9519 13.121 29.6789 12.872 29.4909 12.463C29.4239 12.318 29.3329 12.085 29.4319 11.935C29.4639 11.834 29.5079 11.792 29.6079 11.759C29.7779 11.627 30.2509 11.802 30.4289 11.876C30.8989 12.071 31.2909 12.257 31.6889 12.521C31.8799 12.648 32.0729 12.893 32.3039 12.961C32.3919 12.961 32.4799 12.961 32.5679 12.961C32.9809 13.056 33.4429 12.991 33.8279 13.108C34.5099 13.315 35.1199 13.637 35.6739 13.987C37.3639 15.054 38.7449 16.572 39.6899 18.384C39.8419 18.676 39.9079 18.954 40.0409 19.263C40.3109 19.887 40.6519 20.529 40.9199 21.139C41.1879 21.748 41.4499 22.362 41.8289 22.869C42.0289 23.135 42.7989 23.278 43.1479 23.426C43.3929 23.53 43.7949 23.637 44.0269 23.777C44.4709 24.045 44.9009 24.364 45.3159 24.656C45.5279 24.803 46.1669 25.124 46.1989 25.389Z" fill="#00796B"/>
<path d="M33.0981 14.223C32.8831 14.219 32.7311 14.246 32.5701 14.282C32.5701 14.292 32.5701 14.3011 32.5701 14.3121C32.5801 14.3121 32.5891 14.3121 32.6001 14.3121C32.7031 14.5221 32.8831 14.6591 33.0101 14.8401C33.1081 15.0451 33.2051 15.25 33.3031 15.455C33.3131 15.445 33.3221 15.436 33.3321 15.426C33.5131 15.298 33.5971 15.0941 33.5961 14.7811C33.5231 14.7041 33.5121 14.6081 33.4491 14.5171C33.3651 14.3941 33.2031 14.325 33.0981 14.223Z" fill="#00796B"/>
</g>
<defs>
<clipPath id="clip0_90_42">
<rect width="48" height="48" fill="white"/>
</clipPath>
</defs>
</svg>
