<svg width="50" height="50" viewBox="0 0 50 50" fill="none" xmlns="http://www.w3.org/2000/svg">
<path d="M25 12C18.5078 12 12.6211 13.3594 8.27344 15.6289C3.92578 17.8984 1 21.168 1 25C1 28.832 3.92578 32.1016 8.27344 34.3711C12.6211 36.6406 18.5078 38 25 38C31.4922 38 37.3789 36.6406 41.7266 34.3711C46.0742 32.1016 49 28.832 49 25C49 21.168 46.0742 17.8984 41.7266 15.6289C37.3789 13.3594 31.4922 12 25 12ZM25 14C31.2109 14 36.8242 15.3242 40.8008 17.4023C44.7773 19.4766 47 22.2031 47 25C47 27.7969 44.7773 30.5234 40.8008 32.5977C36.8242 34.6758 31.2109 36 25 36C18.7891 36 13.1758 34.6758 9.19922 32.5977C5.22266 30.5234 3 27.7969 3 25C3 22.2031 5.22266 19.4766 9.19922 17.4023C13.1758 15.3242 18.7891 14 25 14ZM22.5078 16L20 28H22.625L23.8906 22H25.9883C26.6562 22 27.1016 22.1094 27.3086 22.332C27.5117 22.5547 27.5547 22.9766 27.4375 23.582L26.4805 28H29.1445L30.1836 23.2227C30.4062 22.0781 30.2383 21.2383 29.6836 20.7266C29.1172 20.207 28.1211 20 26.6367 20H24.2969L25.1289 16H22.5078ZM11 20L8.97266 31H11.6172L12.1445 28H13.793C17.2383 28 19.1133 27.2031 19.8125 24.2461C20.4141 21.7031 18.875 20 16.332 20H11ZM32 20L29.9727 31H32.6172L33.1445 28H34.793C38.2383 28 40.1133 27.2031 40.8125 24.2461C41.4141 21.7031 39.875 20 37.332 20H32ZM13.2734 22H15.332C17.043 22 17.4023 22.7695 17.3125 23.625C17.082 25.832 15.707 26 14.2305 26H12.5156L13.2734 22ZM34.2734 22H36.332C38.043 22 38.4023 22.7695 38.3125 23.625C38.082 25.832 36.707 26 35.2305 26H33.5156L34.2734 22Z" fill="white"/>
</svg>
