<svg width="54" height="54" viewBox="0 0 54 54" fill="none" xmlns="http://www.w3.org/2000/svg">
<path d="M27 30.78C29.0876 30.78 30.78 29.0876 30.78 27C30.78 24.9123 29.0876 23.22 27 23.22C24.9123 23.22 23.22 24.9123 23.22 27C23.22 29.0876 24.9123 30.78 27 30.78Z" fill="#39C1D7"/>
<path d="M27.0001 31.3199C24.6181 31.3199 22.6801 29.3819 22.6801 26.9999C22.6801 24.618 24.6181 22.6799 27.0001 22.6799C29.382 22.6799 31.3201 24.618 31.3201 26.9999C31.3201 29.3819 29.382 31.3199 27.0001 31.3199ZM27.0001 23.7599C25.2132 23.7599 23.7601 25.2131 23.7601 26.9999C23.7601 28.7868 25.2132 30.2399 27.0001 30.2399C28.7869 30.2399 30.2401 28.7868 30.2401 26.9999C30.2401 25.2131 28.7869 23.7599 27.0001 23.7599Z" fill="#1F212B"/>
<path d="M47.79 27C47.79 24.0969 44.294 21.5843 38.8702 20.089C40.2645 14.6372 39.8352 10.3501 37.3437 8.89539C36.3609 8.32137 35.1685 8.21661 33.8002 8.58273C31.7385 9.13461 29.376 10.7481 27 13.1182C24.624 10.7481 22.2615 9.13515 20.1997 8.58273C18.8314 8.21607 17.6391 8.32137 16.6563 8.89539C14.1647 10.3501 13.7354 14.6367 15.1297 20.089C9.70592 21.5843 6.20996 24.0969 6.20996 27C6.20996 29.903 9.70592 32.4156 15.1297 33.9114C13.7354 39.3633 14.1647 43.6503 16.6563 45.1051C17.2567 45.4555 17.935 45.6321 18.6845 45.6316C19.1613 45.6316 19.6673 45.5603 20.1997 45.4177C22.2615 44.8653 24.624 43.2523 27 40.8823C29.376 43.2523 31.7385 44.8653 33.8002 45.4177C34.3326 45.5603 34.8386 45.6316 35.3154 45.6316C36.0649 45.6316 36.7432 45.4561 37.3437 45.1051C39.8352 43.6503 40.264 39.3633 38.8702 33.9114C44.294 32.4156 47.79 29.903 47.79 27ZM34.2192 10.1471C34.6107 10.0429 34.9736 9.98997 35.3079 9.98997C35.7723 9.98997 36.1805 10.0915 36.5266 10.294C38.1963 11.2692 38.5371 14.8408 37.2934 19.6959C35.58 19.3104 33.7105 19.0204 31.7239 18.8411C30.558 17.1601 29.3452 15.6297 28.1232 14.2894C30.2929 12.1149 32.4216 10.6288 34.2192 10.1471ZM32.8077 30.4014C32.171 31.5171 31.5009 32.5857 30.8134 33.6085C29.593 33.6997 28.3208 33.75 27 33.75C25.6791 33.75 24.4069 33.6997 23.187 33.6085C22.4996 32.5857 21.8295 31.5171 21.1928 30.4014C20.5345 29.248 19.9438 28.1118 19.4146 27.0005C19.9438 25.8892 20.5345 24.753 21.1928 23.599C21.83 22.4829 22.4996 21.4142 23.1876 20.3914C24.4074 20.3002 25.6791 20.25 27 20.25C28.3208 20.25 29.5925 20.3002 30.8129 20.3914C31.5003 21.4142 32.1705 22.4834 32.8077 23.599C33.4659 24.7525 34.0567 25.8886 34.5859 27.0005C34.0567 28.1118 33.4659 29.248 32.8077 30.4014ZM35.4477 28.9143C36.0099 30.2432 36.4743 31.5225 36.8501 32.7385C35.6216 33.0123 34.2954 33.2407 32.8789 33.4098C33.3336 32.6937 33.7818 31.9615 34.2144 31.2039C34.6523 30.4376 35.0611 29.6735 35.4477 28.9143ZM27 38.5327C26.1165 37.5559 25.2347 36.4743 24.3734 35.3041C25.2331 35.3457 26.1079 35.37 27 35.37C27.892 35.37 28.7668 35.3457 29.6265 35.3041C28.7652 36.4737 27.8834 37.5553 27 38.5327ZM21.1204 33.4098C19.7046 33.2407 18.3778 33.0123 17.1493 32.7385C17.5251 31.5225 17.9895 30.2427 18.5517 28.9143C18.9383 29.6735 19.3476 30.4376 19.785 31.2039C20.2181 31.962 20.6658 32.6943 21.1204 33.4098ZM18.5522 25.0862C17.9901 23.7573 17.5251 22.4775 17.1498 21.2608C18.3783 20.9871 19.7051 20.7586 21.1215 20.5896C20.6663 21.3057 20.2186 22.0384 19.7861 22.7961C19.3476 23.5629 18.9388 24.327 18.5522 25.0862ZM27 15.4677C27.8834 16.4446 28.7652 17.5262 29.6265 18.6964C28.7668 18.6543 27.892 18.63 27 18.63C26.1079 18.63 25.2331 18.6543 24.3734 18.6958C25.2347 17.5262 26.1165 16.4446 27 15.4677ZM34.2144 22.7966C33.7818 22.0384 33.3336 21.3062 32.8789 20.5902C34.2954 20.7592 35.6216 20.9876 36.8506 21.2614C36.4748 22.478 36.0104 23.7573 35.4483 25.0867C35.0611 24.327 34.6523 23.5629 34.2144 22.7966ZM17.4733 10.294C17.82 10.0915 18.2271 9.98997 18.6921 9.98997C19.0258 9.98997 19.3897 10.0429 19.7807 10.1471C21.5784 10.6288 23.707 12.1143 25.8768 14.2889C24.6547 15.6292 23.4419 17.1601 22.276 18.8406C20.2894 19.0198 18.4194 19.3098 16.7065 19.6954C15.4629 14.8402 15.8036 11.2687 17.4733 10.294ZM7.82996 27C7.82996 25.0581 10.7465 22.9824 15.5709 21.6534C16.0941 23.3593 16.781 25.1559 17.6261 27C16.781 28.8441 16.0941 30.6406 15.5709 32.3465C10.7465 31.0176 7.82996 28.9418 7.82996 27ZM19.7807 43.8528C18.8449 44.1023 18.0689 44.0532 17.4733 43.7065C15.8036 42.7312 15.4634 39.1597 16.7065 34.3045C18.4194 34.6901 20.2894 34.9801 22.2755 35.1594C23.4414 36.8404 24.6542 38.3707 25.8762 39.7116C23.707 41.8856 21.5784 43.3711 19.7807 43.8528ZM36.5266 43.7065C35.931 44.0542 35.1556 44.1028 34.2192 43.8528C32.4216 43.3711 30.2929 41.8856 28.1232 39.711C29.3452 38.3707 30.558 36.8398 31.7239 35.1588C33.7105 34.9795 35.58 34.6896 37.2929 34.304C38.5371 39.1597 38.1963 42.7312 36.5266 43.7065ZM38.4291 32.3465C37.9058 30.6406 37.2189 28.8441 36.3738 27C37.2189 25.1559 37.9058 23.3587 38.4291 21.6534C43.2534 22.9824 46.17 25.0581 46.17 27C46.17 28.9418 43.2534 31.0176 38.4291 32.3465Z" fill="#39C1D7"/>
<path d="M18.6812 45.901C17.8869 45.901 17.1601 45.7114 16.5207 45.3377C14.0194 43.877 13.3979 39.7887 14.8046 34.0998C9.16644 32.4965 5.93994 29.9159 5.93994 26.9999C5.93994 24.0839 9.16644 21.5032 14.804 19.9C13.3979 14.2111 14.0194 10.1227 16.5207 8.66202C17.5672 8.04966 18.8281 7.93518 20.2699 8.32182C22.2776 8.85966 24.6007 10.3846 26.9999 12.7385C29.3997 10.3846 31.7228 8.85966 33.73 8.32182C35.1712 7.93626 36.4327 8.05074 37.4797 8.66202C39.9805 10.1227 40.602 14.2111 39.1958 19.9C44.8334 21.5032 48.0599 24.0839 48.0599 26.9999C48.0599 29.9159 44.8334 32.4965 39.1958 34.0998C40.602 39.7887 39.981 43.8765 37.4797 45.3377C36.4391 45.9452 35.1653 46.0624 33.7305 45.6779C31.7222 45.1401 29.3992 43.6151 26.9999 41.2618C24.6007 43.6151 22.2776 45.1406 20.2699 45.6779C19.7175 45.8259 19.184 45.901 18.6845 45.901C18.6834 45.901 18.6823 45.901 18.6812 45.901ZM18.6861 8.63934C17.9836 8.63934 17.3501 8.80242 16.7923 9.12858C14.5114 10.4608 13.9876 14.5329 15.391 20.022C15.4272 20.1646 15.343 20.3104 15.2009 20.3492C9.74046 21.8548 6.47994 24.3415 6.47994 26.9999C6.47994 29.6583 9.74046 32.145 15.2015 33.6505C15.3435 33.6894 15.4277 33.8352 15.3916 33.9778C13.9876 39.4669 14.5114 43.5395 16.7923 44.8712C17.3485 45.1957 17.9841 45.3604 18.6812 45.3604C18.6823 45.3604 18.6834 45.3604 18.6845 45.3604C19.137 45.3604 19.623 45.2918 20.1301 45.1563C22.0994 44.6287 24.4096 43.0849 26.8093 40.6905C26.9146 40.5857 27.0853 40.5857 27.1906 40.6905C29.5903 43.0843 31.9004 44.6282 33.8698 45.1563C35.1626 45.5014 36.2917 45.4052 37.2076 44.8712C39.4885 43.539 40.0123 39.4669 38.6083 33.9778C38.5721 33.8352 38.6564 33.6894 38.7984 33.6505C44.2594 32.145 47.5199 29.6583 47.5199 26.9999C47.5199 24.3415 44.2594 21.8548 38.7984 20.3492C38.6564 20.3104 38.5721 20.1646 38.6083 20.022C40.0118 14.5329 39.488 10.4602 37.207 9.12858C36.2896 8.59236 35.1664 8.49678 33.8693 8.84346C31.8999 9.37104 29.5903 10.9149 27.19 13.3093C27.0847 13.414 26.9141 13.414 26.8088 13.3093C24.4085 10.9149 22.0989 9.37104 20.1295 8.84346C19.6214 8.70738 19.1397 8.63934 18.6861 8.63934ZM35.3084 44.2793C34.9504 44.2793 34.5637 44.2243 34.1495 44.1136C32.3508 43.6313 30.2011 42.1755 27.932 39.9016C27.8305 39.7995 27.8267 39.6353 27.9233 39.529C29.1464 38.1876 30.3501 36.6653 31.5019 35.0048C31.5473 34.939 31.6196 34.8968 31.6996 34.8898C33.65 34.7138 35.512 34.4281 37.234 34.0404C37.375 34.0085 37.5186 34.0949 37.5548 34.237C38.8162 39.1634 38.4744 42.8813 36.6627 43.9391C36.2744 44.1659 35.8214 44.2793 35.3084 44.2793ZM28.4963 39.7012C30.6298 41.804 32.6289 43.147 34.2889 43.5919C35.1523 43.8225 35.8597 43.7825 36.3905 43.4731C37.9322 42.5724 38.2033 39.1137 37.0958 34.6241C35.4607 34.98 33.7062 35.2462 31.874 35.4163C30.7853 36.978 29.6503 38.4176 28.4963 39.7012ZM18.6915 44.2793C18.1785 44.2793 17.7254 44.1659 17.3372 43.9397C15.5255 42.8813 15.1831 39.1634 16.4451 34.237C16.4813 34.0955 16.6249 34.0107 16.7659 34.0404C18.4874 34.4281 20.3493 34.7138 22.3003 34.8898C22.3797 34.8968 22.4526 34.939 22.498 35.0048C23.6498 36.6653 24.8534 38.1876 26.0765 39.529C26.1737 39.6353 26.17 39.7995 26.0679 39.9016C23.7988 42.175 21.6491 43.6313 19.8509 44.1136C19.4362 44.2237 19.049 44.2793 18.6915 44.2793ZM16.9041 34.6241C15.7966 39.1132 16.0676 42.5724 17.6093 43.4731C18.1396 43.782 18.847 43.8225 19.711 43.5919C21.371 43.147 23.3701 41.8034 25.5036 39.7012C24.3502 38.4176 23.2151 36.978 22.1264 35.4163C20.2942 35.2462 18.5392 34.98 16.9041 34.6241ZM26.9999 38.8021C26.9238 38.8021 26.8509 38.7697 26.7996 38.713C25.9016 37.72 25.0122 36.6265 24.1558 35.4633C24.0942 35.3796 24.0861 35.2673 24.1352 35.1755C24.1844 35.0837 24.2762 35.0275 24.3863 35.0335C26.1716 35.1204 27.8283 35.1204 29.6135 35.0335C29.7215 35.027 29.8155 35.0837 29.8646 35.1755C29.9138 35.2673 29.9062 35.3791 29.8441 35.4633C28.9877 36.6259 28.0983 37.7194 27.2003 38.713C27.149 38.7697 27.0761 38.8021 26.9999 38.8021ZM24.9301 35.5988C25.6057 36.4925 26.3001 37.3409 26.9999 38.1282C27.7003 37.3409 28.3942 36.4931 29.0698 35.5988C27.6593 35.6528 26.3406 35.6528 24.9301 35.5988ZM26.9999 34.0199C25.7207 34.0199 24.4312 33.9724 23.1665 33.8779C23.0839 33.8719 23.0088 33.8282 22.9624 33.7591C22.2404 32.685 21.5659 31.6001 20.9579 30.5353C20.3207 29.4185 19.7191 28.2683 19.1705 27.116C19.1354 27.0425 19.1354 26.9572 19.1705 26.8838C19.7191 25.7314 20.3207 24.5812 20.9579 23.4645C21.5654 22.4007 22.2398 21.3158 22.9629 20.2402C23.0088 20.1716 23.0844 20.1278 23.167 20.1214C25.6964 19.9324 28.304 19.9324 30.8329 20.1214C30.9155 20.1273 30.9905 20.171 31.037 20.2402C31.76 21.3158 32.4345 22.4007 33.042 23.4645C33.6792 24.5812 34.2808 25.7314 34.8294 26.8838C34.8645 26.9572 34.8645 27.0425 34.8294 27.116C34.2808 28.2683 33.6792 29.4185 33.042 30.5353C32.434 31.6001 31.7595 32.685 31.0375 33.7591C30.9916 33.8276 30.916 33.8714 30.8334 33.8779C29.5687 33.9724 28.2792 34.0199 26.9999 34.0199ZM23.3377 33.3487C25.7563 33.5225 28.2436 33.5225 30.6617 33.3487C31.3491 32.321 31.9917 31.2848 32.5727 30.2669C33.1819 29.1993 33.758 28.1009 34.2862 26.9999C33.758 25.8988 33.1819 24.7999 32.5727 23.7329C31.9922 22.7161 31.3496 21.6798 30.6611 20.6506C28.2425 20.4767 25.7558 20.4767 23.3371 20.6506C22.6492 21.6798 22.006 22.7161 21.4255 23.7329C20.8164 24.8005 20.2402 25.8988 19.7121 26.9999C20.2402 28.1009 20.8164 29.1998 21.4255 30.2669C22.0076 31.2853 22.6502 32.321 23.3377 33.3487ZM32.8795 33.6802C32.7877 33.6802 32.7007 33.6332 32.651 33.5544C32.5954 33.4658 32.596 33.3535 32.6516 33.2655C33.1527 32.4766 33.5874 31.7584 33.98 31.0704C34.3925 30.3479 34.8051 29.5811 35.2074 28.7921C35.2549 28.6987 35.3548 28.6431 35.4574 28.6453C35.5622 28.649 35.6556 28.7128 35.6966 28.81C36.2447 30.1054 36.7194 31.4009 37.1082 32.6596C37.1309 32.7314 37.1217 32.8097 37.0839 32.8745C37.0461 32.9399 36.9824 32.9863 36.9089 33.0025C35.6399 33.286 34.2948 33.5134 32.9113 33.6786C32.9005 33.6797 32.8897 33.6802 32.8795 33.6802ZM35.4218 29.5546C35.101 30.1691 34.7749 30.7669 34.4492 31.3377C34.1344 31.8896 33.7926 32.4604 33.4124 33.0706C34.4762 32.9291 35.513 32.7503 36.505 32.5376C36.1934 31.558 35.8306 30.5585 35.4218 29.5546ZM21.1204 33.6802C21.1096 33.6802 21.0988 33.6797 21.088 33.6786C19.7051 33.5128 18.3599 33.2855 17.0909 33.002C17.0175 32.9858 16.9543 32.9393 16.916 32.874C16.8782 32.8087 16.8695 32.7309 16.8917 32.6591C17.2805 31.3998 17.7551 30.1049 18.3032 28.8094C18.3443 28.7128 18.4377 28.6485 18.5425 28.6447C18.6407 28.6345 18.745 28.6982 18.7925 28.7916C19.1948 29.5805 19.6073 30.3473 20.0199 31.0699C20.413 31.7578 20.8477 32.476 21.3483 33.265C21.4045 33.353 21.4045 33.4653 21.3488 33.5539C21.2992 33.6332 21.2128 33.6802 21.1204 33.6802ZM17.4954 32.5376C18.4874 32.7503 19.5242 32.9291 20.588 33.0706C20.2073 32.4604 19.866 31.8896 19.5512 31.3377C19.225 30.7669 18.8994 30.1686 18.5786 29.5546C18.1693 30.5585 17.8064 31.558 17.4954 32.5376ZM38.429 32.6164C38.3129 32.6164 38.2066 32.5414 38.1709 32.4253C37.6444 30.7086 36.957 28.9212 36.1286 27.1127C36.0957 27.0415 36.0957 26.9588 36.1286 26.8876C36.957 25.0791 37.6444 23.2912 38.1715 21.574C38.2147 21.4341 38.3626 21.3558 38.5014 21.3931C43.3981 22.7425 46.4399 24.8906 46.4399 26.9999C46.4399 29.1091 43.3976 31.2572 38.5003 32.6067C38.4766 32.6132 38.4523 32.6164 38.429 32.6164ZM36.6708 26.9999C37.4462 28.7036 38.098 30.3895 38.6089 32.0154C43.0471 30.7502 45.8999 28.7938 45.8999 26.9999C45.8999 25.206 43.0471 23.2496 38.6089 21.9844C38.0975 23.6108 37.4457 25.2967 36.6708 26.9999ZM15.5708 32.6164C15.5471 32.6164 15.5233 32.6132 15.499 32.6067C10.6023 31.2572 7.55994 29.1091 7.55994 26.9999C7.55994 24.8906 10.6018 22.7425 15.499 21.3931C15.6383 21.3558 15.7858 21.4341 15.829 21.574C16.356 23.2912 17.0434 25.0791 17.8718 26.8876C17.9047 26.9588 17.9047 27.0409 17.8718 27.1127C17.0429 28.9217 16.356 30.7091 15.8295 32.4253C15.7939 32.5414 15.6869 32.6164 15.5708 32.6164ZM15.391 21.9844C10.9528 23.2496 8.09994 25.206 8.09994 26.9999C8.09994 28.7938 10.9528 30.7502 15.391 32.0154C15.9024 30.3895 16.5536 28.7041 17.3291 26.9999C16.5542 25.2967 15.9024 23.6108 15.391 21.9844ZM35.4482 25.3567C35.3467 25.3567 35.2538 25.3 35.2074 25.2092C34.7986 24.4057 34.3969 23.66 33.9805 22.9304C33.5885 22.2436 33.1538 21.5254 32.6516 20.7348C32.5954 20.6468 32.5954 20.5345 32.651 20.4459C32.7067 20.3579 32.806 20.3093 32.9119 20.3217C34.2959 20.4875 35.641 20.7148 36.91 20.9978C36.9835 21.014 37.0466 21.0604 37.085 21.1258C37.1228 21.1911 37.1314 21.2689 37.1093 21.3407C36.7199 22.6021 36.2447 23.8976 35.6977 25.1914C35.6567 25.2881 35.5633 25.3523 35.4585 25.3561C35.4542 25.3567 35.4509 25.3567 35.4482 25.3567ZM34.4487 22.6626C34.7786 23.2404 35.0994 23.8279 35.4212 24.4457C35.8295 23.4434 36.1924 22.4428 36.5039 21.4622C35.512 21.2494 34.4752 21.0707 33.4108 20.9292C33.7931 21.5405 34.1344 22.1113 34.4487 22.6626ZM18.5516 25.3567C18.5484 25.3567 18.5452 25.3567 18.5419 25.3567C18.4372 25.3529 18.3437 25.2892 18.3027 25.192C17.7557 23.8981 17.2805 22.6027 16.8911 21.3412C16.8685 21.2694 16.8776 21.1911 16.9154 21.1263C16.9532 21.061 17.017 21.0145 17.0904 20.9983C18.3594 20.7148 19.7045 20.4875 21.0886 20.3222C21.1939 20.3114 21.2938 20.3584 21.3494 20.4464C21.405 20.535 21.4045 20.6473 21.3488 20.7353C20.8466 21.5259 20.4119 22.2441 20.0199 22.931C19.6036 23.6605 19.2018 24.4057 18.793 25.2098C18.746 25.3 18.6532 25.3567 18.5516 25.3567ZM17.4954 21.4622C17.807 22.4428 18.1704 23.4434 18.5781 24.4457C18.9005 23.8279 19.2207 23.2404 19.5506 22.6626C19.8655 22.1113 20.2067 21.5405 20.588 20.9292C19.5242 21.0707 18.4874 21.2494 17.4954 21.4622ZM37.294 19.9658C37.274 19.9658 37.2545 19.9637 37.2346 19.9594C35.513 19.5716 33.6506 19.286 31.6996 19.1099C31.6202 19.1029 31.5473 19.0608 31.5019 18.9949C30.3501 17.3339 29.1459 15.8122 27.9233 14.4713C27.8261 14.365 27.8299 14.2008 27.932 14.0987C30.2005 11.8253 32.3508 10.3684 34.1495 9.88674C35.1588 9.61674 36.0061 9.67776 36.6627 10.0606C38.4744 11.119 38.8168 14.8369 37.5553 19.7633C37.524 19.8843 37.4149 19.9658 37.294 19.9658ZM31.8734 18.5834C33.7057 18.7535 35.4607 19.0198 37.0958 19.3756C38.2033 14.8866 37.9322 11.4274 36.39 10.5266C35.8613 10.2183 35.1529 10.1778 34.2889 10.4078C32.6289 10.8528 30.6293 12.1963 28.4957 14.2991C29.6497 15.5816 30.7848 17.0212 31.8734 18.5834ZM16.7059 19.9658C16.585 19.9658 16.4759 19.8843 16.4446 19.7628C15.1831 14.8364 15.5249 11.119 17.3366 10.0606C17.9933 9.67776 18.8422 9.61674 19.8498 9.88674C21.6491 10.369 23.7988 11.8253 26.0674 14.0987C26.1689 14.2008 26.1727 14.365 26.076 14.4713C24.8534 15.8122 23.6492 17.3344 22.4974 18.9949C22.4521 19.0608 22.3797 19.1029 22.2998 19.1099C20.3493 19.286 18.4868 19.5716 16.7648 19.9594C16.7453 19.9637 16.7259 19.9658 16.7059 19.9658ZM17.6093 10.5266C16.0676 11.4274 15.7966 14.8866 16.9036 19.3756C18.5387 19.0198 20.2937 18.7535 22.1259 18.5834C23.2151 17.0212 24.3496 15.5816 25.5031 14.2985C23.3695 12.1958 21.3704 10.8523 19.7099 10.4073C18.8497 10.1778 18.1402 10.2178 17.6093 10.5266ZM29.6265 18.9658C29.6222 18.9658 29.6179 18.9658 29.6135 18.9658C27.8283 18.8788 26.1721 18.8788 24.3869 18.9658C24.2756 18.9685 24.1849 18.915 24.1358 18.8237C24.0866 18.7319 24.0942 18.6202 24.1563 18.5359C25.0133 17.3722 25.9027 16.2787 26.8001 15.2862C26.9027 15.1733 27.0982 15.1733 27.2008 15.2862C28.0978 16.2782 28.9871 17.3717 29.8447 18.5359C29.9062 18.6196 29.9143 18.7319 29.8652 18.8237C29.8171 18.9112 29.7253 18.9658 29.6265 18.9658ZM26.9999 18.3599C27.6706 18.3599 28.3645 18.3739 29.0698 18.4015C28.3937 17.5067 27.6992 16.6583 26.9999 15.8721C26.3006 16.6589 25.6062 17.5067 24.9301 18.4015C25.6354 18.3739 26.3293 18.3599 26.9999 18.3599Z" fill="#1F212B"/>
</svg>
