<svg width="111" height="61" viewBox="0 0 111 61" fill="none" xmlns="http://www.w3.org/2000/svg">
<path d="M14.6582 39.0815H11.9015C11.3336 39.0815 11.1435 39.3342 11.1435 39.9046V54.943C11.1435 56.5265 9.81385 57.3182 7.69249 57.3182C5.57113 57.3182 4.30409 56.5265 4.30409 54.943V39.9046C4.30409 39.3342 4.08389 39.0815 3.54603 39.0815H0.789343C0.220198 39.0815 0 39.3342 0 39.9046V55.7023C0 58.3615 1.96133 60.8655 7.69249 60.8655C13.4236 60.8655 15.3862 58.3615 15.3862 55.7023V39.9046C15.3862 39.3342 15.2285 39.0815 14.6582 39.0815Z" fill="#102F5E"/>
<path d="M33.0225 39.0815H30.5209C29.9505 39.0815 29.7604 39.3342 29.7604 39.8732V52.5376C29.7604 52.5376 29.2213 51.2381 28.6835 50.3212L22.3206 39.3968C22.1931 39.1766 22.0054 39.0815 21.6564 39.0815H19.1536C18.5845 39.0815 18.3943 39.3342 18.3943 39.8732V59.821C18.3943 60.3577 18.5845 60.6104 19.1536 60.6104H21.6564C22.2255 60.6104 22.4157 60.3577 22.4157 59.821V47.1891C22.4457 47.2818 22.826 48.3262 23.6827 49.7509L29.7917 60.2325C29.9505 60.5153 30.1082 60.6104 30.5209 60.6104H33.0225C33.5928 60.6104 33.7829 60.3577 33.7829 59.821V39.8732C33.7829 39.3342 33.5928 39.0815 33.0225 39.0815Z" fill="#102F5E"/>
<path d="M40.431 39.0815H37.6779C37.1088 39.0815 36.9163 39.3342 36.9163 39.9045V59.7885C36.9163 60.3577 37.1088 60.6104 37.6779 60.6104H40.431C41.0026 60.6104 41.1927 60.3577 41.1927 59.7885V39.9045C41.1927 39.3342 41.0026 39.0815 40.431 39.0815Z" fill="#102F5E"/>
<path d="M58.9553 39.0815H56.4537C55.8821 39.0815 55.6932 39.3342 55.6932 39.8732V52.5376C55.6932 52.5376 55.1541 51.2381 54.6187 50.3212L48.251 39.3968C48.1259 39.1766 47.9357 39.0815 47.588 39.0815H45.0864C44.5149 39.0815 44.3271 39.3342 44.3271 39.8732V59.821C44.3271 60.3577 44.5149 60.6104 45.0864 60.6104H47.588C48.1584 60.6104 48.3485 60.3577 48.3485 59.821V47.1891C48.3785 47.2818 48.76 48.3262 49.6131 49.7509L55.7257 60.2325C55.8821 60.5153 56.041 60.6104 56.4537 60.6104H58.9553C59.5256 60.6104 59.7133 60.3577 59.7133 59.821V39.8732C59.7133 39.3342 59.5256 39.0815 58.9553 39.0815Z" fill="#102F5E"/>
<path d="M76.3377 39.0815H63.0391C62.4688 39.0815 62.2486 39.2716 62.2486 39.8396V41.8358C62.2486 42.4061 62.4688 42.6263 63.0391 42.6263H67.5358V59.7885C67.5358 60.3577 67.7572 60.6104 68.3251 60.6104H71.0818C71.6521 60.6104 71.841 60.3577 71.841 59.7885V42.6263H76.3377C76.8767 42.6263 77.1294 42.4061 77.1294 41.8358V39.8396C77.1294 39.2716 76.8767 39.0815 76.3377 39.0815Z" fill="#102F5E"/>
<path d="M91.6312 57.0643H84.0013V51.1755H90.7769C91.3461 51.1755 91.5988 50.9529 91.5988 50.4163V48.5163C91.5988 47.946 91.3461 47.7571 90.7769 47.7571H84.0013V42.6263H91.3136C91.8514 42.6263 92.1065 42.4061 92.1065 41.8358V39.8396C92.1065 39.2716 91.8514 39.0815 91.3136 39.0815H80.4866C79.9162 39.0815 79.7249 39.3342 79.7249 39.9033V59.7885C79.7249 60.3577 79.9162 60.6104 80.4866 60.6104H91.6312C92.2016 60.6104 92.423 60.3902 92.423 59.821V57.8236C92.423 57.2556 92.2016 57.0643 91.6312 57.0643Z" fill="#102F5E"/>
<path d="M106.132 46.49C106.132 48.0735 104.835 48.8641 102.712 48.8641H99.5788V42.6263H102.712C104.835 42.6263 106.132 43.4205 106.132 45.0028V46.49ZM102.712 39.0815H96.0629C95.4949 39.0815 95.3048 39.3342 95.3048 39.9046V59.7885C95.3048 60.3589 95.4949 60.6116 96.0629 60.6116H98.8183C99.3887 60.6116 99.5788 60.3589 99.5788 59.7885V52.4113H102.712H102.902L106.007 59.7885C106.227 60.2963 106.354 60.6116 106.797 60.6116H109.583C110.153 60.6116 110.533 60.2963 110.312 59.7885L106.891 51.8109C109.425 50.8916 110.376 49.1168 110.376 47.2493V44.2411C110.376 41.5819 108.443 39.0815 102.712 39.0815Z" fill="#102F5E"/>
<path d="M71.9291 13.8827H71.9015C71.7998 13.8827 71.7195 13.9656 71.7195 14.0635C71.7195 14.1425 71.7697 14.2116 71.8412 14.2379L71.8576 14.243C79.8659 17.7915 68.9065 26.6458 56.2778 30.3575C56.2 30.3725 56.1397 30.3725 56.0393 30.2734C56.0343 30.2696 56.0192 30.2646 56.0117 30.2595C55.4443 29.4876 54.405 29.2303 53.5188 29.6796C52.9452 29.9734 52.59 30.4742 52.4695 31.034C52.4594 31.0528 52.4431 31.0742 52.4393 31.0892C52.3665 31.3102 52.1695 31.3616 52.1519 31.3654C47.3457 32.2968 42.5683 32.3445 38.7361 30.9487C35.1324 29.5918 34.0604 26.9332 38.1512 22.545L38.1675 22.5324C38.1976 22.4985 38.219 22.4521 38.219 22.4019C38.219 22.2964 38.1349 22.2123 38.0294 22.2123C37.983 22.2123 37.9378 22.2337 37.9077 22.2613L37.8788 22.2889C32.1638 27.7165 32.681 31.1118 36.6349 32.5955C40.6892 34.1181 46.4733 33.7503 52.3904 32.3231L52.3942 32.3244C52.5222 32.2855 52.595 32.3307 52.6565 32.3909C53.1862 33.4214 54.3146 33.8156 55.3238 33.3022C56.0669 32.9244 56.4761 32.1474 56.4184 31.3503L56.4247 31.3441C56.4322 31.2035 56.6142 31.1357 56.618 31.1344C71.0982 26.5002 84.0947 16.6505 71.9291 13.8827Z" fill="#102F5E"/>
<path fill-rule="evenodd" clip-rule="evenodd" d="M57.7538 0.278576C57.9044 1.38066 58.5308 6.32747 58.5308 13.5575C58.5308 14.5793 58.517 15.5609 58.4919 16.506C58.4881 16.7709 58.2785 16.9793 58.0124 16.9868C56.7082 17.0345 55.3187 17.0634 53.8626 17.0634C52.7229 17.0634 51.6384 17.0445 50.6091 17.0157C50.3505 17.0081 50.1371 16.7897 50.1371 16.5299C50.1133 15.5772 50.0982 14.5881 50.0982 13.5575C50.0982 6.31743 50.7246 1.36685 50.8752 0.27481C50.8752 0.263513 50.8777 0.252216 50.8777 0.240919C50.8777 0.110376 50.771 0.00242913 50.6367 0.00242913C50.6267 0.00242913 50.6129 0.00242844 50.6041 0.00368365C50.4095 0.028788 50.043 0.0752317 49.8296 0.102846C49.5522 0.135482 49.4681 0.441754 49.4681 0.441754C49.4681 0.441754 49.2761 1.23254 49.0439 2.69362C49.0112 2.8932 48.8393 3.05135 48.6296 3.0752C47.1861 3.24215 45.9987 3.47562 45.0184 3.748C44.997 3.75427 44.9694 3.7593 44.9443 3.7593C44.8226 3.7593 44.7221 3.66766 44.7083 3.54842C44.7071 3.53963 44.7071 3.52959 44.7071 3.51955C44.7071 3.47938 44.7422 3.38775 44.7485 3.36892C44.756 3.35386 44.7611 3.33754 44.7661 3.32248C45.0209 2.63336 45.4351 2.02082 45.9585 1.52626C46.0012 1.48358 46.0225 1.4271 45.9987 1.3907C45.9736 1.35179 45.9083 1.34802 45.8493 1.37438C44.6368 1.94676 43.7067 3.02248 43.3301 4.33042C42.2092 4.70322 41.2715 5.48522 40.7017 6.5032C40.6766 6.55216 40.6803 6.60739 40.7117 6.63249C40.7456 6.66136 40.8059 6.65006 40.8523 6.61115C41.3381 6.18438 41.913 5.853 42.5406 5.65593C42.5619 5.64965 42.5832 5.64714 42.6058 5.64714C42.7351 5.64714 42.8393 5.75007 42.8456 5.87685V5.88564C42.8456 5.89568 42.8393 5.93333 42.8368 5.9484C42.833 5.96346 42.828 5.97852 42.828 5.98731C42.5971 6.90487 42.3975 8.0308 42.2506 9.41531C42.2293 9.6174 42.0686 9.78183 41.869 9.82325C40.4732 10.0705 39.7251 10.2676 39.7251 10.2676C39.7251 10.2676 39.3937 10.353 39.3573 10.6304C39.3297 10.8425 39.2783 11.2052 39.2519 11.4011C39.2506 11.4098 39.2494 11.4224 39.2494 11.4324C39.2494 11.5642 39.3573 11.6734 39.4879 11.6734C39.5004 11.6734 39.5155 11.6709 39.528 11.6697C39.8895 11.6119 40.669 11.4952 41.8075 11.3596C41.8176 11.3596 41.8326 11.3571 41.8414 11.3571C41.9745 11.3571 42.0824 11.4638 42.0824 11.5969C42.0824 11.5994 42.0812 11.6057 42.0812 11.6094C42.041 12.3864 42.0121 13.2236 42.0008 14.1324V14.1362C42.0084 14.7387 42.0234 15.306 42.046 15.8458C42.0485 15.8583 42.046 15.8759 42.046 15.8885C42.046 16.1521 41.8314 16.3667 41.569 16.3667C41.5477 16.3667 41.5188 16.3655 41.5 16.3617C40.5259 16.2437 39.8506 16.142 39.5243 16.0893C39.513 16.088 39.5004 16.0868 39.4904 16.0868C39.3573 16.0868 39.2494 16.1935 39.2494 16.3253C39.2494 16.3378 39.2506 16.3516 39.2519 16.3629C39.2808 16.5575 39.3297 16.919 39.3573 17.1299C39.3937 17.4085 39.7251 17.4914 39.7251 17.4914C39.7251 17.4914 40.4594 17.6834 41.8201 17.9269C42.0272 17.9659 42.1891 18.1391 42.213 18.3512C42.3335 19.6215 42.4991 20.6796 42.695 21.5608C42.7163 21.6449 42.7376 21.729 42.7565 21.8093C42.7577 21.8169 42.7615 21.8332 42.7653 21.8482C42.769 21.8621 42.774 21.8997 42.774 21.9097V21.9198C42.769 22.0466 42.6636 22.1482 42.5343 22.1482C42.513 22.1482 42.4916 22.1457 42.4703 22.1395C41.8414 21.9424 41.2678 21.611 40.782 21.1855C40.7343 21.1466 40.6766 21.1353 40.6414 21.1629C40.61 21.1893 40.605 21.2432 40.6314 21.2934C41.2013 22.3102 42.1351 23.0934 43.2586 23.465C43.6339 24.7729 44.5677 25.8499 45.7778 26.421C45.838 26.4474 45.902 26.4449 45.9259 26.4059C45.951 26.3695 45.9322 26.3118 45.8857 26.2691C45.361 25.7746 44.9506 25.162 44.6958 24.4742C44.6895 24.4591 44.6845 24.4428 44.6782 24.4277C44.6719 24.4076 44.6355 24.3173 44.6368 24.2758V24.2482C44.6518 24.129 44.7523 24.0373 44.8753 24.0373C44.8991 24.0373 44.9267 24.0411 44.9481 24.0474C44.9657 24.0524 44.987 24.0587 45.0046 24.0637C45.9736 24.3198 47.1773 24.5445 48.6849 24.7164C48.8807 24.7365 49.0413 24.8746 49.0978 25.0566C49.1054 25.0842 49.1217 25.1947 49.1254 25.221C49.3439 26.6193 49.5171 27.4038 49.5171 27.4038C49.5171 27.4038 49.5899 27.6913 49.8221 27.7365C49.9928 27.7716 50.4271 27.8319 50.6694 27.862C50.6794 27.8632 50.6869 27.8645 50.697 27.8645C50.83 27.8645 50.9342 27.7566 50.9342 27.6235V27.5997L50.6869 25.4658C50.6832 25.4457 50.6832 25.4256 50.6832 25.4055C50.6832 25.1419 50.9066 24.916 51.1689 24.926C52.1342 24.9838 53.1911 25.0214 54.3534 25.0352H54.3584C55.4869 25.0227 56.5212 24.9863 57.4626 24.9323C57.7275 24.9323 57.9421 25.1457 57.9421 25.4106C57.9421 25.4294 57.9383 25.4495 57.9383 25.467C57.8304 26.5227 57.7375 27.2582 57.6936 27.5934C57.6936 27.6034 57.6936 27.6135 57.6936 27.6235C57.6936 27.7566 57.799 27.8632 57.9321 27.8632C57.9383 27.8632 57.9459 27.8632 57.9572 27.862C58.1982 27.8319 58.6287 27.7716 58.7994 27.7365C59.0341 27.6913 59.1069 27.4038 59.1069 27.4038C59.1069 27.4038 59.2852 26.5905 59.5099 25.1457C59.545 24.9298 59.6956 24.7603 59.9316 24.7277C61.2157 24.5859 62.2839 24.4026 63.1726 24.1968C63.3082 24.1641 63.4399 24.1302 63.5642 24.0976C63.583 24.0926 63.6044 24.0876 63.6207 24.0813C63.642 24.075 63.6709 24.0712 63.6948 24.0712C63.8178 24.0712 63.9194 24.1629 63.9332 24.2821V24.3097C63.9345 24.3511 63.8981 24.4415 63.8906 24.4616C63.8856 24.4767 63.8793 24.493 63.873 24.508C63.6194 25.1959 63.209 25.8097 62.6831 26.303C62.6379 26.3457 62.619 26.4034 62.6429 26.4398C62.668 26.4775 62.7333 26.4813 62.7923 26.4561C64.0023 25.8838 64.9349 24.8068 65.3102 23.4989C66.4324 23.1273 67.3675 22.3428 67.9386 21.3273C67.9638 21.2771 67.96 21.2231 67.9274 21.1968C67.8935 21.1692 67.8357 21.1792 67.7893 21.2194C67.3023 21.6462 66.7274 21.9775 66.0985 22.1733C66.0772 22.1796 66.0571 22.1821 66.0357 22.1821C65.9065 22.1821 65.801 22.0805 65.796 21.9524C65.796 21.9499 65.7935 21.9462 65.7935 21.9424C65.7935 21.9336 65.801 21.8972 65.8048 21.8821C65.8085 21.8671 65.8123 21.8508 65.8136 21.8432C65.8324 21.7629 65.8537 21.6788 65.8726 21.5947C65.8989 21.478 65.9228 21.3549 65.9504 21.2319C66.1198 20.3985 66.2642 19.4194 66.3721 18.2659C66.3947 18.0512 66.5629 17.8717 66.7776 17.8378C68.078 17.6119 68.7922 17.4387 68.7922 17.4387C68.7922 17.4387 69.1022 17.3671 69.1524 17.1349C69.1901 16.9654 69.2529 16.5462 69.2868 16.3014C69.288 16.2914 69.2893 16.2801 69.2893 16.2675C69.2893 16.1357 69.1801 16.0291 69.0495 16.0291C69.0395 16.0291 69.0269 16.0291 69.0156 16.0303C68.7018 16.078 68.0303 16.1759 67.0638 16.2914C67.0487 16.2926 67.0261 16.2952 67.0085 16.2952C66.7462 16.2952 66.5303 16.0805 66.5303 15.8169V15.7868C66.5516 15.2646 66.5667 14.7161 66.5742 14.1362V14.1324C66.5629 13.2236 66.5353 12.3839 66.4939 11.6069V11.5893C66.4939 11.4575 66.6006 11.3496 66.7311 11.3496C66.7424 11.3496 66.7562 11.3509 66.765 11.3534C67.9424 11.4889 68.7432 11.6107 69.1135 11.6697C69.1248 11.6709 69.1386 11.6722 69.1524 11.6722C69.2868 11.6722 69.3909 11.5655 69.3909 11.4337V11.4073C69.3621 11.2153 69.3119 10.845 69.2868 10.6304C69.2478 10.353 68.9165 10.2676 68.9165 10.2676C68.9165 10.2676 68.147 10.0643 66.7073 9.81196C66.5002 9.76928 66.342 9.59606 66.3182 9.38393C66.1788 8.04461 65.9906 6.9488 65.7659 6.05007C65.7596 6.02245 65.7533 5.99609 65.7458 5.96848C65.7458 5.96095 65.742 5.94463 65.7383 5.92957C65.7345 5.91576 65.7282 5.8781 65.7282 5.86932V5.85928C65.7345 5.73124 65.8399 5.62957 65.9692 5.62957C65.9906 5.62957 66.0106 5.63208 66.032 5.6371C66.6608 5.83543 67.2357 6.16555 67.7228 6.59232C67.7667 6.63249 67.8269 6.64379 67.8621 6.61617C67.8935 6.58856 67.8972 6.53584 67.8721 6.48437C67.3023 5.46765 66.3659 4.68565 65.245 4.3141C64.8684 3.00491 63.9358 1.92919 62.7257 1.35681C62.6655 1.33045 62.6015 1.33296 62.5751 1.37187C62.5525 1.40827 62.5713 1.46601 62.6165 1.50869C63.1425 2.00199 63.5517 2.61705 63.8065 3.30365C63.814 3.31997 63.8178 3.33503 63.824 3.3501C63.8253 3.35512 63.8379 3.39152 63.8491 3.42666C63.8554 3.44926 63.8617 3.47436 63.8617 3.49821C63.8617 3.63001 63.755 3.7367 63.6207 3.7367C63.6006 3.7367 63.5755 3.73294 63.5542 3.72666C62.5839 3.46055 61.4103 3.2321 59.9894 3.07144L59.9818 3.07018C59.7835 3.04257 59.6266 2.89319 59.5839 2.69864C59.5839 2.6911 59.5802 2.67353 59.5802 2.67353C59.3492 1.22375 59.1571 0.440499 59.1571 0.440499C59.1571 0.440499 59.073 0.132971 58.7956 0.100335C58.5797 0.0727202 58.0124 0.0011722 58.0124 0.0011722C58.0049 -8.30157e-05 57.9948 -8.23262e-05 57.9885 -8.23262e-05C57.8555 -8.23262e-05 57.7475 0.106611 57.7475 0.239664C57.7475 0.250961 57.7488 0.264768 57.75 0.276065M59.8212 22.934C59.8212 23.1976 60.0358 23.4122 60.3006 23.4122C60.3145 23.4122 60.3333 23.4122 60.3471 23.411C61.9061 23.2629 63.1663 23.0507 64.1705 22.8122C64.3387 22.7671 64.4717 22.629 64.5132 22.462C64.7366 21.4591 64.9224 20.2252 65.0378 18.6976C65.0378 18.6976 65.0404 18.6738 65.0404 18.6638C65.0404 18.3989 64.8245 18.1855 64.5621 18.1855C64.5383 18.1855 64.5169 18.1868 64.4918 18.1905C63.386 18.3424 62.0856 18.493 60.622 18.6148C60.3772 18.6361 60.2002 18.8232 60.1789 19.1006C60.0797 20.5114 59.9555 21.7855 59.8249 22.8775C59.8237 22.8963 59.8212 22.9152 59.8212 22.934ZM58.3965 19.2763C58.404 19.014 58.1806 18.7968 57.9145 18.7968H57.9107C56.6442 18.8608 55.2948 18.8985 53.8689 18.8985C52.7606 18.8985 51.7087 18.8746 50.7171 18.8357C50.456 18.8357 50.2413 19.0504 50.2413 19.314L50.4798 23.1022C50.4924 23.3683 50.7007 23.5742 50.9618 23.5804C50.9618 23.5804 53.1183 23.6344 54.3597 23.6181H54.3635C55.571 23.6332 57.6772 23.5804 57.6772 23.5804C57.6835 23.5804 57.6936 23.5804 57.7011 23.5792C57.9408 23.5679 58.1354 23.3784 58.153 23.1399L58.3965 19.2763ZM48.7476 4.96054C48.7514 4.93669 48.7514 4.90531 48.7514 4.88146C48.7514 4.61786 48.538 4.40322 48.2744 4.40322C48.2543 4.40322 48.2367 4.40573 48.2204 4.40699C46.6953 4.58021 45.4765 4.80866 44.5012 5.05092C44.3217 5.08983 44.1786 5.23041 44.1347 5.40614C43.915 6.3576 43.7268 7.52872 43.6012 8.96845C43.5975 8.981 43.5975 8.99983 43.5975 9.01364C43.5975 9.27974 43.8134 9.49313 44.077 9.49313C44.0996 9.49313 44.1221 9.49188 44.1435 9.48811C45.179 9.35129 47.7158 9.11155 47.9091 9.09648C47.9167 9.09648 47.9455 9.09397 47.9606 9.09146C48.0974 9.07765 48.3987 8.98979 48.4263 8.6446C48.5091 7.25257 48.6259 6.01869 48.7476 4.96054ZM48.3271 23.3984C48.5932 23.3984 48.8267 23.18 48.8129 22.9127C48.8129 22.9014 48.8104 22.8901 48.8104 22.88C48.6811 21.8031 48.5593 20.5554 48.4627 19.1684C48.4514 18.9035 48.248 18.7165 47.9757 18.6813L44.0418 18.2771C43.7795 18.2771 43.5661 18.483 43.556 18.7416V18.8006C43.674 20.2729 44.0632 22.4143 44.0632 22.4143C44.1021 22.5938 44.2426 22.7369 44.4234 22.7796C44.4234 22.7796 46.4933 23.1976 48.2719 23.3959C48.2895 23.3984 48.307 23.3984 48.3271 23.3984ZM43.9125 16.619C45.3297 16.7395 47.8388 16.9014 47.8388 16.9014C48.0924 16.914 48.3284 16.6855 48.3183 16.4194C48.287 15.5056 48.2644 14.5542 48.2644 13.5575C48.2644 12.7881 48.2769 12.0538 48.297 11.3458C48.297 11.0735 48.0999 10.8463 47.8175 10.8626C46.3276 10.9417 45.0046 11.0421 43.8749 11.1475C43.6301 11.1714 43.4418 11.376 43.4418 11.6245C43.4418 11.6245 43.4155 13.2349 43.4255 14.1337V14.1387C43.418 14.8454 43.4192 15.5056 43.433 16.1332C43.433 16.3981 43.6401 16.5964 43.9125 16.619ZM65.1609 14.1387V14.1337C65.1709 13.2337 65.1646 12.4002 65.1433 11.622C65.1395 11.3684 64.9437 11.1601 64.6964 11.1412C63.5868 11.0396 62.2914 10.9417 60.8391 10.8638C60.8329 10.8626 60.8266 10.8626 60.8191 10.8626C60.5529 10.8626 60.3396 11.0772 60.3396 11.3421V11.3546C60.3584 12.0588 60.3709 12.7918 60.3709 13.5575C60.3709 14.5353 60.3496 15.4705 60.3182 16.368C60.3094 16.6341 60.5316 16.8512 60.7977 16.8512C60.8078 16.8512 60.8228 16.8512 60.8341 16.8512C62.2864 16.7621 63.5931 16.6529 64.7178 16.5462C64.965 16.5123 65.1496 16.3215 65.1533 16.0667C65.1684 15.4592 65.1684 14.819 65.1609 14.1387ZM60.7387 9.0877C60.8605 9.09021 63.3797 9.32744 64.4429 9.46677C64.4642 9.46928 64.4868 9.47179 64.5094 9.47179C64.7755 9.47179 64.9889 9.25715 64.9889 8.99355C64.9889 8.97598 64.9889 8.95715 64.9876 8.94084C64.8182 7.31156 64.4617 5.3961 64.4617 5.3961C64.4228 5.21786 64.286 5.07602 64.1127 5.03083C64.1102 5.02958 64.0989 5.02706 64.0989 5.02706C63.1249 4.78983 61.9211 4.56766 60.4124 4.3982C60.4124 4.3982 60.3835 4.39569 60.3672 4.39569C60.1048 4.39569 59.8676 4.62163 59.8902 4.87393C59.8914 4.89276 60.1124 7.06052 60.2166 8.60067V8.63707C60.2341 8.88059 60.4199 9.06134 60.7387 9.0877Z" fill="#F9AE0C"/>
</svg>
