<svg width="82" height="112" viewBox="0 0 82 112" fill="none" xmlns="http://www.w3.org/2000/svg">
<path d="M35.74 37.88C42.86 37.88 48.34 39.74 52.18 43.46C56.06 47.18 58 52.36 58 59C58 65.64 56.06 70.8 52.18 74.48C48.34 78.16 42.86 80 35.74 80H23.92V37.88H35.74ZM35.74 77.72C42.1 77.72 46.94 76.08 50.26 72.8C53.58 69.48 55.24 64.88 55.24 59C55.24 53.08 53.58 48.46 50.26 45.14C46.94 41.82 42.1 40.16 35.74 40.16H26.62V77.72H35.74Z" fill="white"/>
<path d="M49.2 23.76C56.48 23.76 62.02 25.6 65.82 29.28C69.62 32.96 71.52 38.16 71.52 44.88C71.52 51.6 69.62 56.8 65.82 60.48C62.02 64.16 56.48 66 49.2 66H38.1V23.76H49.2ZM49.2 64.92C56.16 64.92 61.42 63.16 64.98 59.64C68.54 56.12 70.32 51.2 70.32 44.88C70.32 38.56 68.54 33.64 64.98 30.12C61.42 26.6 56.16 24.84 49.2 24.84H39.3V64.92H49.2Z" fill="#FFD600"/>
<path d="M35.74 37.88C42.86 37.88 48.34 39.74 52.18 43.46C56.06 47.18 58 52.36 58 59C58 65.64 56.06 70.8 52.18 74.48C48.34 78.16 42.86 80 35.74 80H23.92V37.88H35.74ZM35.74 77.72C42.1 77.72 46.94 76.08 50.26 72.8C53.58 69.48 55.24 64.88 55.24 59C55.24 53.08 53.58 48.46 50.26 45.14C46.94 41.82 42.1 40.16 35.74 40.16H26.62V77.72H35.74Z" fill="white"/>
<path d="M5.74 90.02C7.28667 90.02 8.61333 90.3 9.72 90.86C10.8267 91.42 11.6733 92.2267 12.26 93.28C12.8467 94.3333 13.14 95.5867 13.14 97.04C13.14 98.48 12.8467 99.7267 12.26 100.78C11.6733 101.82 10.8267 102.62 9.72 103.18C8.61333 103.727 7.28667 104 5.74 104H1.6V90.02H5.74ZM5.74 102.84C7.68667 102.84 9.16667 102.333 10.18 101.32C11.2067 100.293 11.72 98.8667 11.72 97.04C11.72 95.2 11.2067 93.7667 10.18 92.74C9.16667 91.7 7.68667 91.18 5.74 91.18H3V102.84H5.74ZM15.0811 98.52C15.0811 97.4 15.3011 96.42 15.7411 95.58C16.1944 94.7267 16.8144 94.0733 17.6011 93.62C18.4011 93.1533 19.3011 92.92 20.3011 92.92C21.3411 92.92 22.2344 93.16 22.9811 93.64C23.7411 94.12 24.2878 94.7333 24.6211 95.48V93.08H26.0211V104H24.6211V101.58C24.2744 102.327 23.7211 102.947 22.9611 103.44C22.2144 103.92 21.3211 104.16 20.2811 104.16C19.2944 104.16 18.4011 103.927 17.6011 103.46C16.8144 102.993 16.1944 102.333 15.7411 101.48C15.3011 100.627 15.0811 99.64 15.0811 98.52ZM24.6211 98.54C24.6211 97.66 24.4411 96.8867 24.0811 96.22C23.7211 95.5533 23.2278 95.04 22.6011 94.68C21.9878 94.32 21.3078 94.14 20.5611 94.14C19.7878 94.14 19.0944 94.3133 18.4811 94.66C17.8678 95.0067 17.3811 95.5133 17.0211 96.18C16.6744 96.8333 16.5011 97.6133 16.5011 98.52C16.5011 99.4133 16.6744 100.2 17.0211 100.88C17.3811 101.547 17.8678 102.06 18.4811 102.42C19.0944 102.767 19.7878 102.94 20.5611 102.94C21.3078 102.94 21.9878 102.76 22.6011 102.4C23.2278 102.04 23.7211 101.527 24.0811 100.86C24.4411 100.193 24.6211 99.42 24.6211 98.54ZM33.0972 102.64L36.7772 93.08H38.2572L33.8772 104H32.2972L27.9172 93.08H29.4172L33.0972 102.64ZM40.8547 91.02C40.5747 91.02 40.3347 90.92 40.1347 90.72C39.9347 90.52 39.8347 90.2733 39.8347 89.98C39.8347 89.6867 39.9347 89.4467 40.1347 89.26C40.3347 89.06 40.5747 88.96 40.8547 88.96C41.1347 88.96 41.3747 89.06 41.5747 89.26C41.7747 89.4467 41.8747 89.6867 41.8747 89.98C41.8747 90.2733 41.7747 90.52 41.5747 90.72C41.3747 90.92 41.1347 91.02 40.8547 91.02ZM41.5547 93.08V104H40.1547V93.08H41.5547Z" fill="white"/>
<path d="M49.165 90.1C50.645 90.1 51.9383 90.3867 53.045 90.96C54.165 91.52 55.025 92.3333 55.625 93.4C56.2383 94.4533 56.545 95.6867 56.545 97.1C56.545 98.5133 56.2383 99.74 55.625 100.78C55.025 101.82 54.165 102.62 53.045 103.18C51.9383 103.727 50.645 104 49.165 104H44.625V90.1H49.165ZM49.165 102.14C50.7917 102.14 52.0383 101.7 52.905 100.82C53.7717 99.94 54.205 98.7 54.205 97.1C54.205 95.4867 53.7717 94.2267 52.905 93.32C52.0383 92.4133 50.7917 91.96 49.165 91.96H46.905V102.14H49.165ZM68.9047 98.22C68.9047 98.6333 68.878 99.0067 68.8247 99.34H60.4047C60.4714 100.22 60.798 100.927 61.3847 101.46C61.9714 101.993 62.6914 102.26 63.5447 102.26C64.7714 102.26 65.638 101.747 66.1447 100.72H68.6047C68.2714 101.733 67.6647 102.567 66.7847 103.22C65.918 103.86 64.838 104.18 63.5447 104.18C62.4914 104.18 61.5447 103.947 60.7047 103.48C59.878 103 59.2247 102.333 58.7447 101.48C58.278 100.613 58.0447 99.6133 58.0447 98.48C58.0447 97.3467 58.2714 96.3533 58.7247 95.5C59.1914 94.6333 59.838 93.9667 60.6647 93.5C61.5047 93.0333 62.4647 92.8 63.5447 92.8C64.5847 92.8 65.5114 93.0267 66.3247 93.48C67.138 93.9333 67.7714 94.5733 68.2247 95.4C68.678 96.2133 68.9047 97.1533 68.9047 98.22ZM66.5247 97.5C66.5114 96.66 66.2114 95.9867 65.6247 95.48C65.038 94.9733 64.3114 94.72 63.4447 94.72C62.658 94.72 61.9847 94.9733 61.4247 95.48C60.8647 95.9733 60.5314 96.6467 60.4247 97.5H66.5247ZM75.4084 101.96L78.5284 92.98H80.9484L76.7484 104H74.0284L69.8484 92.98H72.2884L75.4084 101.96Z" fill="#FFD600"/>
</svg>
